inDegrees=yes
name=ik_OwnShooting_orientations.mot
DataType=double
version=3
OpenSimVersion=4.3-2021-08-27-4bc7ad9
endheader
time	pelvis_tilt	pelvis_list	pelvis_rotation	pelvis_tx	pelvis_ty	pelvis_tz	hip_flexion_r	hip_adduction_r	hip_rotation_r	knee_angle_r	knee_angle_r_beta	ankle_angle_r	subtalar_angle_r	mtp_angle_r	hip_flexion_l	hip_adduction_l	hip_rotation_l	knee_angle_l	knee_angle_l_beta	ankle_angle_l	subtalar_angle_l	mtp_angle_l	lumbar_extension	lumbar_bending	lumbar_rotation	arm_flex_r	arm_add_r	arm_rot_r	elbow_flex_r	pro_sup_r	wrist_flex_r	wrist_dev_r	arm_flex_l	arm_add_l	arm_rot_l	elbow_flex_l	pro_sup_l	wrist_flex_l	wrist_dev_l
4.75	1.711087719071792	-0.1146187606402486	149.4723680616241	0	0.9399999999999999	0	29.50393495802347	-9.388078925352934	0	40.98556916116862	0.7153331276662429	-4.840406512948503	0	0	29.50393495802347	-9.388078925352934	0	40.98556916116862	0.7153331276662429	-4.840406512948503	0	0	13.56310084154135	-4.278129105910308	6.005433229852623	0	-6.147488837059936	0	54.31338863000119	41.63664386282495	0	0	-4.881407206498694	-34.83594857820713	25.44572341624763	0.008853443502875731	41.63664386282495	0	0
4.76	1.746289389956462	-0.1306201047752377	149.4633660971455	0	0.9399999999999999	0	29.67541024485434	-9.408763618436659	0	41.16827618519749	0.718521966802067	-4.847225153683651	0	0	29.67541024485434	-9.408763618436659	0	41.16827618519749	0.718521966802067	-4.847225153683651	0	0	13.56175703102989	-4.288656298072305	5.99444036103765	0	-6.197751229761097	0	54.54937591698087	41.72911015720893	0	0	-5.391693099439359	-35.44752430486601	27.3156212651355	0.00812576951503635	41.72911015720893	0	0
4.77	1.721869193611048	-0.1398450393489034	149.4586062289962	0	0.9399999999999999	0	29.84254186989115	-9.428743386093796	0	41.34586559822648	0.721621486776107	-4.853775706892684	0	0	29.84254186989115	-9.428743386093796	0	41.34586559822648	0.721621486776107	-4.853775706892684	0	0	13.55794293352234	-4.300312835802608	5.999429071246495	0	-6.246732361606638	0	54.77932376746276	41.81871997010836	0	0	-5.557151474975171	-36.04474729445495	29.36966043612968	0.007712969575989915	41.81871997010836	0	0
4.78	1.726998417281508	-0.1499273926451626	149.4612788143326	0	0.9399999999999999	0	30.00337682111837	-9.447819181917209	0	41.51630961334079	0.7245962960301707	-4.859998727168954	0	0	30.00337682111837	-9.447819181917209	0	41.51630961334079	0.7245962960301707	-4.859998727168954	0	0	13.56206591885948	-4.310866432695192	6.008157670728618	0	-6.293852046635442	0	55.00055883737627	41.90453046078617	0	0	-5.167607240275368	-36.4749145702477	31.71494015375635	0.007490789868414113	41.90453046078617	0	0
4.79	1.716619818871452	-0.1658137050213473	149.4589864956996	0	0.9399999999999999	0	30.01212563197814	-9.448904067401671	0	41.52525606455642	0.7247524410602525	-4.860357691892659	0	0	30.01212563197814	-9.448904067401671	0	41.52525606455642	0.7247524410602525	-4.860357691892659	0	0	13.56123580770508	-4.323632320512505	6.017788937183511	0	-6.296360188676552	0	55.01261566519464	41.90936019100425	0	0	-5.589658299652332	-36.83579348055333	33.2130352922984	0.007048604420496662	41.90936019100425	0	0
4.8	1.743259129377392	-0.1553430610091188	149.4589662947955	0	0.9399999999999999	0	30.01908792716813	-9.449765990746599	0	41.53237831510432	0.7248767477824654	-4.860642701905475	0	0	30.01908792716813	-9.449765990746599	0	41.53237831510432	0.7248767477824654	-4.860642701905475	0	0	13.5857499411775	-4.314803066781145	5.994679701359068	0	-6.298357377349802	0	55.02220967934311	41.91319900330422	0	0	-5.56814639216976	-37.19153539076942	34.99562406981416	0.006754943815003752	41.91319900330422	0	0
4.81	1.750527212509286	-0.1605410384255876	149.4498487994604	0	0.9399999999999999	0	30.02576025465597	-9.450591150117003	0	41.53920439721683	0.7249958853903401	-4.860915429546441	0	0	30.02576025465597	-9.450591150117003	0	41.53920439721683	0.7249958853903401	-4.860915429546441	0	0	13.58280358992891	-4.321878835486927	6.010509136574166	0	-6.300271933510176	0	55.03140365952144	41.91687518919051	0	0	-5.81174997535395	-37.79010115871039	36.74898326486085	0.00634876732415846	41.91687518919051	0	0
4.82	1.731624591253278	-0.169274309437331	149.4519311669736	0	0.9399999999999999	0	30.18979914238114	-9.469691737851448	0	41.71238481941349	0.7280184539576656	-4.867084508332137	0	0	30.18979914238114	-9.469691737851448	0	41.71238481941349	0.7280184539576656	-4.867084508332137	0	0	13.574810930717	-4.322206363384572	6.017846130050675	0	-6.348381939582785	0	55.25689308900795	42.00333830358314	0	0	-5.646439984324564	-38.20662019976786	39.02824029766554	0.006112582141974868	42.00333830358314	0	0
4.83	1.739523419571351	-0.1794470183029526	149.4498793272004	0	0.9399999999999999	0	30.198986087796	-9.47080077607716	0	41.72178487718494	0.7281825159156553	-4.867447265611219	0	0	30.198986087796	-9.47080077607716	0	41.72178487718494	0.7281825159156553	-4.867447265611219	0	0	13.58155008957132	-4.333817172661113	6.043956361851983	0	-6.351034476553798	0	55.26953722798979	42.00831367212913	0	0	-6.00296946957096	-38.47394704606116	40.56584508005587	0.00587704751366561	42.00831367212913	0	0
4.84	1.757957992583049	-0.1789350826908774	149.4557142503552	0	0.9399999999999999	0	30.46510088910799	-9.498764609467944	0	42.00992452001138	0.7332115013884971	-4.876160949701627	0	0	30.46510088910799	-9.498764609467944	0	42.00992452001138	0.7332115013884971	-4.876160949701627	0	0	13.61436378816447	-4.337222613997427	6.03946235722754	0	-6.431944449709913	0	55.63357146125382	42.13826029275935	0	0	-8.827108180828171	-39.66208849913958	40.49039708177981	0.005190530355912924	42.13826029275935	0	0
4.85	1.765077500976167	-0.1749175014124396	149.4562642446111	0	0.9399999999999999	0	30.47036956410661	-9.499377557251039	0	42.01532317458373	0.7333057256859623	-4.876358571395778	0	0	30.47036956410661	-9.499377557251039	0	42.01532317458373	0.7333057256859623	-4.876358571395778	0	0	13.62015964821	-4.334396637467045	6.035097398898587	0	-6.433482675709354	0	55.64080934580172	42.14103787258551	0	0	-9.221262969225597	-39.62140327970625	41.5453665456873	0.005081188816385004	42.14103787258551	0	0
4.86	1.745444753305124	-0.205454910316053	149.4510604182972	0	0.9399999999999999	0	30.47262280683999	-9.499633704150481	0	42.01767231116926	0.733346725853959	-4.876440763608311	0	0	30.47262280683999	-9.499633704150481	0	42.01767231116926	0.733346725853959	-4.876440763608311	0	0	13.61473789321483	-4.390863684392866	6.052021165895954	0	-6.43415079944807	0	55.64390079984007	42.14220350045399	0	0	-9.302941529044935	-39.26410203312268	41.51849749223383	0.005113868062785256	42.14220350045399	0	0
4.87	1.759730990503814	-0.2170721437061331	149.4593513353776	0	0.9399999999999999	0	30.47532221754849	-9.499945532973069	0	42.02045149905692	0.7333952318331302	-4.876541134802923	0	0	30.47532221754849	-9.499945532973069	0	42.02045149905692	0.7333952318331302	-4.876541134802923	0	0	13.63892929026993	-4.394269046692373	6.034832363776177	0	-6.434942412734698	0	55.64760771691916	42.14361850494021	0	0	-9.037854844358229	-38.94301457673487	41.38020022457928	0.005224224355009494	42.14361850494021	0	0
4.88	1.759242312426623	-0.1990239413859178	149.4507777369232	0	0.9399999999999999	0	30.48132343833759	-9.500640981949726	0	42.02661179189422	0.7335027492260281	-4.876765088585845	0	0	30.48132343833759	-9.500640981949726	0	42.02661179189422	0.7335027492260281	-4.876765088585845	0	0	13.63615766033753	-4.355954478107419	6.051873627448586	0	-6.436697948594439	0	55.65585030887815	42.14677274648147	0	0	-9.293022669810281	-38.39761707829956	41.18873433731872	0.005256229328515707	42.14677274648147	0	0
4.89	1.76522788167462	-0.2074419463065038	149.4418157039107	0	0.9399999999999999	0	30.48929793802457	-9.50156654871687	0	42.03478085813569	0.7336453263287552	-4.877063154903581	0	0	30.48929793802457	-9.50156654871687	0	42.03478085813569	0.7336453263287552	-4.877063154903581	0	0	13.66810571983495	-4.354702112090164	6.064174667231578	0	-6.439027032363311	0	55.66680429498204	42.15097008356908	0	0	-10.63856370716338	-37.87729281716984	40.30027712519135	0.00509985646839121	42.15097008356908	0	0
4.9	1.759001065780194	-0.2321660005708738	149.4434573058406	0	0.9399999999999999	0	30.49192279128768	-9.501869485910705	0	42.03747985023254	0.7336924326273305	-4.877160580948009	0	0	30.49192279128768	-9.501869485910705	0	42.03747985023254	0.7336924326273305	-4.877160580948009	0	0	13.6543073138063	-4.39942195656147	6.065933347764637	0	-6.439796352391256	0	55.67040877074031	42.15234539548035	0	0	-11.08780666533678	-37.42534415464959	40.62838501569619	0.004984153147269629	42.15234539548035	0	0
4.91	1.765524816091208	-0.2299934590279767	149.4516473742271	0	0.9399999999999999	0	30.49485494364361	-9.50220793704308	0	42.04049358527127	0.7337450322265392	-4.877269420571061	0	0	30.49485494364361	-9.50220793704308	0	42.04049358527127	0.7337450322265392	-4.877269420571061	0	0	13.66679376261822	-4.401771144249774	6.049026552116708	0	-6.440655507578741	0	55.67443528242883	42.15388197026124	0	0	-11.47084086425899	-37.03148342912697	41.05644648991604	0.004894600815297735	42.15388197026124	0	0
4.92	1.74115463184328	-0.2329206799709193	149.4552576850834	0	0.9399999999999999	0	30.49733122482876	-9.502493020164811	0	42.04304307458018	0.733789529209224	-4.877361039886489	0	0	30.49733122482876	-9.502493020164811	0	42.04304307458018	0.733789529209224	-4.877361039886489	0	0	13.65562723187209	-4.419425254464182	6.080839549975613	0	-6.441382244667778	0	55.67783530535044	42.15517692755263	0	0	-11.89109585549499	-36.63277070215958	41.25052004720584	0.004817064050651226	42.15517692755263	0	0
4.93	1.768172321746198	-0.2122713543442104	149.4713304915909	0	0.9399999999999999	0	30.50168740108052	-9.502993820418865	0	42.04753137175481	0.7338678647727294	-4.877521921988841	0	0	30.50168740108052	-9.502993820418865	0	42.04753137175481	0.7338678647727294	-4.877521921988841	0	0	13.68939202815768	-4.380424569518933	6.046241798981635	0	-6.442661685618843	0	55.68381604752607	42.15745244886602	0	0	-11.54935829164034	-36.10224474569982	41.44403376057042	0.004851665025592533	42.15745244886602	0	0
4.94	1.765016034701278	-0.2215059879999234	149.4502836360068	0	0.9399999999999999	0	30.51035737261588	-9.503996586037681	0	42.05641525735037	0.7340229178267422	-4.877844358202763	0	0	30.51035737261588	-9.503996586037681	0	42.05641525735037	0.7340229178267422	-4.877844358202763	0	0	13.68968996130944	-4.384278919762049	6.093187205889847	0	-6.44519632539178	0	55.69572351521094	42.16200446571077	0	0	-10.06204363889922	-35.49040616087832	42.37203029572608	0.005023579567109981	42.16200446571077	0	0
